<?xml version="1.0" encoding="utf-8"?>
<!-- Generator: Adobe Illustrator 19.0.0, SVG Export Plug-In . SVG Version: 6.00 Build 0)  -->
<svg version="1.1" id="Layer_1" xmlns="http://www.w3.org/2000/svg" xmlns:xlink="http://www.w3.org/1999/xlink" x="0px" y="0px"
	 viewBox="0 0 500 500" style="enable-background:new 0 0 500 500;" xml:space="preserve">
<style type="text/css">
	.st0{fill:#FF0101;}
	.st1{fill:#0101FF;}
	.st2{fill:#01FF01;}
	.st3{fill:#050505;}
</style>
<g id="XMLID_1_">
	<path id="XMLID_2_" class="st0" d="M213.9,196c-27-15.6-40.2-47.4-32.1-77.5c8.1-30.1,35.4-51,66.5-51c31.2,0,58.5,20.9,66.5,51
		c8.1,30.1-5.1,61.9-32.1,77.5L262,160.1c10.7-6.2,16-18.8,12.8-30.8c-3.2-12-14.1-20.3-26.5-20.3c-12.4,0-23.3,8.3-26.5,20.3
		c-3.2,12,2,24.6,12.8,30.8L213.9,196z"/>
	<path id="XMLID_3_" class="st1" d="M361.4,212.7c27,15.6,40.2,47.4,32.1,77.5c-8.1,30.1-35.4,51-66.5,51s-58.5-20.9-66.5-51
		c-8.1-30.1,5.1-61.9,32.1-77.5l20.7,35.9c-10.7,6.2-16,18.8-12.8,30.8c3.2,12,14.1,20.3,26.5,20.3s23.3-8.3,26.5-20.3
		c3.2-12-2-24.6-12.8-30.8L361.4,212.7z"/>
	<path id="XMLID_4_" class="st2" d="M240.1,272.3c0,31.2-20.9,58.5-51,66.5c-30.1,8.1-61.9-5.1-77.5-32.1
		c-15.6-27-11.1-61.1,10.9-83.1c22-22,56.1-26.5,83.1-10.9l-20.7,35.9c-10.7-6.2-24.3-4.4-33.1,4.4c-8.8,8.8-10.6,22.3-4.4,33.1
		c6.2,10.7,18.8,16,30.8,12.8c12-3.2,20.3-14.1,20.3-26.5H240.1z"/>
	<path id="XMLID_5_" class="st3" d="M122,357.7c5.8-0.5,11.7-0.5,17.5,0.3c3.6,0.6,7.4,1.6,10.1,4.2c2.8,3.1,3.5,7.5,4.1,11.5
		c1,8.3,0.9,16.8,0,25.1c-0.6,4.1-1.2,8.5-3.9,11.8c-2.9,3-7.2,3.8-11.2,4.4c-5.8,0.7-11.7,0.9-17.6,0.3c-4-0.4-8.1-1.1-11.5-3.4
		c-2.2-1.4-3.4-3.8-4.1-6.2c-1.6-4.9-1.8-10.2-2-15.3c0-6.8,0.1-13.7,1.4-20.3c0.7-3.1,1.6-6.6,4.2-8.6
		C112.9,358.8,117.6,358.2,122,357.7z M123,367c-2.5,0.4-5.5,0.6-7,2.9c-1.3,3.4-1.2,7.1-1.5,10.7c-0.1,6.4-0.4,12.8,0.5,19.2
		c0.4,2.1,1.1,4.7,3.5,5.3c5.2,1.6,10.7,1.3,16,1c2.6-0.4,6.2-0.6,7.5-3.4c1.5-4.2,1.4-8.8,1.6-13.2c-0.1-6.2,0.3-12.5-1.2-18.6
		c-0.4-2.2-2.6-3.1-4.5-3.5C133,366.5,127.9,366.6,123,367z M175.1,377c3.5-2.2,7.9-2.6,12-2.2c3.8,0.3,8,1.6,10.1,5.1
		c2.4,4.4,2.6,9.6,2.7,14.5c-0.1,5.1-0.2,10.3-2.3,15c-1.2,2.9-3.9,4.7-6.9,5.5c-4.5,1.1-9.4,1.2-13.7-0.6c-2.3-0.9-4-2.9-5.3-4.9
		v23.1h-9.9c0-19.1,0-38.2,0-57.3c3.2,0,6.4,0,9.6,0c-0.1,2-0.2,3.9-0.3,5.9C172.3,379.6,173.4,378,175.1,377z M178.3,382.2
		c-2.4,0.2-4.9,1.3-5.6,3.8c-1.3,4.3-1,8.9-0.9,13.4c0.3,2.9,0.7,6.7,3.8,8c3.3,1.3,7.2,1.2,10.6,0.1c2.9-1,3.3-4.5,3.6-7.1
		c0.3-4.4,0.4-8.9-0.4-13.2c-0.3-1.7-1.2-3.4-2.8-4.1C184,381.9,181.1,382,178.3,382.2z M211.7,377.1c4.9-2.5,10.6-2.6,15.9-2.3
		c4.4,0.4,9.8,1.1,12.3,5.4c2.8,5.1,2.3,11.2,2.7,16.8h-27c0.3,2.9-0.1,6,1.4,8.7c1.3,2.1,3.9,2.5,6.2,2.7c2.8,0,5.8,0.2,8.3-1
		c1.5-1.1,1.5-3.2,1.7-4.9c3.2,0,6.3,0,9.5,0c-0.1,3.3-0.5,7-3.2,9.3c-4,3.6-9.7,3.9-14.8,4c-4.5-0.1-9.2-0.4-13.3-2.6
		c-3.3-1.9-4.3-5.9-4.9-9.4c-0.7-5.2-0.9-10.4-0.3-15.6C206.7,384,207.8,379.2,211.7,377.1z M217.5,383.4c-2.1,1.9-1.9,5-2,7.6
		c5.8,0,11.6,0,17.4,0c0-2.3,0.2-4.8-1-6.9c-1.2-1.7-3.5-1.8-5.4-2C223.6,382.1,220.2,381.7,217.5,383.4z M263.7,377.1
		c3.4-2.4,7.8-2.7,11.9-2.2c3.4,0.4,7.1,1.7,9.1,4.6c1.8,2.5,2.3,5.6,2.3,8.5c0,9.1,0,18.1,0,27.2c-3.1,0-6.3,0-9.4,0
		c0-8.6,0-17.2,0-25.7c-0.1-1.9,0-4-1.4-5.5c-1.5-1.6-3.9-1.9-6-1.9c-2.5,0-5.3,0.4-7.2,2.2c-1.9,1.6-2.6,4.3-2.6,6.7
		c0,8.1,0,16.2,0,24.3c-3.1,0-6.3,0-9.4,0c0-13.3,0-26.7,0-40c3.1,0,6.2,0,9.2,0c0,2.3-0.2,4.7-0.3,7
		C260.7,380.3,261.8,378.3,263.7,377.1z M303.9,359.5c5.2-1.7,10.7-2,16.1-2.2c5.3,0,10.7,0.1,15.6,2.2c2.5,1,4.2,3.3,5.1,5.8
		c1.4,3.8,1.4,7.8,1.4,11.8c-3.6,0-7.2,0-10.8,0c-0.1-2.8,0.2-5.9-1.6-8.3c-1.7-1.8-4.5-1.8-6.8-2c-4.7-0.1-9.6-0.4-14.1,1.2
		c-1.6,0.5-2.5,2.1-2.8,3.7c-0.9,4.2-0.9,8.5-0.9,12.8c0.1,5.7,0,11.5,1.2,17.1c0.3,2.1,2.2,3.3,4.1,3.8c4.4,1.1,9,0.9,13.5,0.7
		c2.3-0.3,5.2-0.5,6.7-2.6c1.6-2.6,1.3-5.7,1.2-8.6c3.6,0,7.3,0,10.9,0c0,4.5-0.1,9.2-1.8,13.5c-0.9,2.2-2.6,4.2-4.9,5
		c-4.5,1.8-9.4,1.9-14.1,2.2c-5.5,0.1-11.1,0-16.4-1.3c-3.1-0.8-6.6-2.3-8-5.4c-1.9-4.1-2.2-8.7-2.7-13.2
		c-0.4-5.9-0.7-11.8-0.5-17.7c0.3-4.8,0.7-9.8,3.3-14C299,361.8,301.4,360.4,303.9,359.5z M344.6,357.9c3.8,0,7.5-0.1,11.3,0.1
		c3.7,11.6,7.7,23.1,11.4,34.7c1.4,4.5,2.5,9,3.9,13.5c1.7-4.8,2.7-9.8,4.4-14.6c3.6-11.2,7.3-22.4,10.9-33.6
		c3.7-0.2,7.4,0,11.2-0.1v1.2c-6.1,18.7-12.1,37.4-18.1,56.1c-5.6,0.1-11.2,0.1-16.8,0C356.8,396,350.5,377,344.6,357.9z"/>
</g>
</svg>
